<svg xmlns="http://www.w3.org/2000/svg" version="1.1" xmlns:xlink="http://www.w3.org/1999/xlink" xmlns:svgjs="http://svgjs.com/svgjs" width="1440" height="560" preserveAspectRatio="none" viewBox="0 0 1440 560"><g mask="url(&quot;#SvgjsMask1055&quot;)" fill="none"><rect width="1440" height="560" x="0" y="0" fill="url(#SvgjsLinearGradient1056)"></rect><path d="M1256.018,541.594C1302.68,542.447,1342.299,511.087,1365.766,470.746C1389.384,430.147,1396.328,380.6,1373.577,339.509C1350.162,297.219,1304.319,270.606,1256.018,272.528C1210.552,274.338,1174.932,308.061,1153.621,348.264C1133.777,385.7,1133.175,429.415,1153.006,466.857C1174.288,507.038,1210.557,540.763,1256.018,541.594" fill="rgba(131, 201, 40, 1)" class="triangle-float3"></path><path d="M150.65 141.76 a175.91 175.91 0 1 0 351.82 0 a175.91 175.91 0 1 0 -351.82 0z" fill="rgba(131, 201, 40, 1)" class="triangle-float3"></path><path d="M1012.865,600.688C1066.465,599.217,1110.999,562.821,1136.559,515.685C1160.862,470.867,1161.191,417.499,1136.339,372.983C1110.824,327.281,1065.17,296.082,1012.865,294.124C956.955,292.031,900.875,315.014,872.271,363.098C843.087,412.158,847.756,473.685,876.827,522.812C905.347,571.008,956.884,602.224,1012.865,600.688" fill="rgba(131, 201, 40, 1)" class="triangle-float1"></path><path d="M930.661,677.942C966.329,677.639,995.969,654.859,1015.19,624.812C1036.391,591.67,1050.992,551.825,1034.051,516.316C1014.956,476.292,975.005,447.19,930.661,447.632C886.942,448.068,849.935,479.041,830.782,518.344C813.772,553.249,823.009,593.354,843.608,626.269C862.794,656.927,894.495,678.249,930.661,677.942" fill="rgba(131, 201, 40, 1)" class="triangle-float1"></path><path d="M113.23,623.051C141.914,620.696,164.163,601.809,179.753,577.617C197.212,550.524,213.481,518.464,199.268,489.536C183.799,458.052,148.303,441.581,113.23,442.227C79.242,442.853,49.962,463.433,32.515,492.609C14.536,522.675,6.221,560.559,24.655,590.349C42.405,619.034,79.61,625.811,113.23,623.051" fill="rgba(131, 201, 40, 1)" class="triangle-float1"></path></g><defs><mask id="SvgjsMask1055"><rect width="1440" height="560" fill="#ffffff"></rect></mask><linearGradient x1="15.28%" y1="-39.29%" x2="84.72%" y2="139.29%" gradientUnits="userSpaceOnUse" id="SvgjsLinearGradient1056"><stop stop-color="#0e2a47" offset="0"></stop><stop stop-color="#00459e" offset="1"></stop></linearGradient><style>
            @keyframes float1 {
                0%{transform: translate(0, 0)}
                50%{transform: translate(-10px, 0)}
                100%{transform: translate(0, 0)}
            }

            .triangle-float1 {
                animation: float1 5s infinite;
            }

            @keyframes float2 {
                0%{transform: translate(0, 0)}
                50%{transform: translate(-5px, -5px)}
                100%{transform: translate(0, 0)}
            }

            .triangle-float2 {
                animation: float2 4s infinite;
            }

            @keyframes float3 {
                0%{transform: translate(0, 0)}
                50%{transform: translate(0, -10px)}
                100%{transform: translate(0, 0)}
            }

            .triangle-float3 {
                animation: float3 6s infinite;
            }
        </style></defs></svg>