<svg xmlns="http://www.w3.org/2000/svg" version="1.1" xmlns:xlink="http://www.w3.org/1999/xlink" xmlns:svgjs="http://svgjs.com/svgjs" width="1440" height="560" preserveAspectRatio="none" viewBox="0 0 1440 560"><g mask="url(&quot;#SvgjsMask1027&quot;)" fill="none"><rect width="1440" height="560" x="0" y="0" fill="url(#SvgjsLinearGradient1028)"></rect><path d="M256.711,630.997C308.222,630.151,355.643,603.581,381.751,559.169C408.225,514.135,414.379,456.092,384.875,412.982C357.985,373.693,304.308,375.343,256.711,376.469C211.91,377.529,164.535,382.235,138.638,418.808C108.641,461.171,99.109,518.039,124.349,563.397C150.168,609.796,203.619,631.869,256.711,630.997" fill="rgba(76, 206, 253, 1)" class="triangle-float1"></path><path d="M8.435,328.319C33.856,328.165,61.867,326.813,75.864,305.592C90.985,282.667,88.161,252.34,74.112,228.743C60.388,205.691,35.257,191.778,8.435,192.335C-17.469,192.873,-39.293,209.193,-52.682,231.376C-66.609,254.45,-74.793,283.618,-60.42,306.416C-46.653,328.253,-17.379,328.475,8.435,328.319" fill="rgba(76, 206, 253, 1)" class="triangle-float2"></path><path d="M493.972,278.515C529.157,277.158,553.566,246.602,569.507,215.206C583.734,187.186,586.501,154.461,570.773,127.255C555.06,100.075,525.347,85.666,493.972,84.547C460.263,83.344,425.049,92.886,407.055,121.415C387.989,151.644,390.326,190.176,407.627,221.448C425.528,253.803,457.022,279.94,493.972,278.515" fill="rgba(76, 206, 253, 1)" class="triangle-float1"></path><path d="M175.244,444.189C206.627,444.658,238.787,434.173,254.967,407.278C271.584,379.656,268.485,344.628,251.696,317.11C235.597,290.723,206.122,275.194,175.244,276.608C146.557,277.922,124.618,298.862,110.029,323.597C95.141,348.84,85.604,379.177,99.545,404.955C114.035,431.749,144.786,443.734,175.244,444.189" fill="rgba(76, 206, 253, 1)" class="triangle-float1"></path><path d="M1384.437,587.622C1426.367,587.427,1459.921,556.448,1480.176,519.735C1499.662,484.415,1504.446,441.753,1484.144,406.895C1463.962,372.245,1424.535,355.092,1384.437,355.359C1344.838,355.623,1307.095,374.083,1287.006,408.209C1266.63,442.822,1267.977,485.336,1287.145,520.632C1307.285,557.718,1342.235,587.818,1384.437,587.622" fill="rgba(76, 206, 253, 1)" class="triangle-float1"></path></g><defs><mask id="SvgjsMask1027"><rect width="1440" height="560" fill="#ffffff"></rect></mask><linearGradient x1="15.28%" y1="-39.29%" x2="84.72%" y2="139.29%" gradientUnits="userSpaceOnUse" id="SvgjsLinearGradient1028"><stop stop-color="#0e2a47" offset="0"></stop><stop stop-color="#00459e" offset="1"></stop></linearGradient><style>
            @keyframes float1 {
                0%{transform: translate(0, 0)}
                50%{transform: translate(-10px, 0)}
                100%{transform: translate(0, 0)}
            }

            .triangle-float1 {
                animation: float1 5s infinite;
            }

            @keyframes float2 {
                0%{transform: translate(0, 0)}
                50%{transform: translate(-5px, -5px)}
                100%{transform: translate(0, 0)}
            }

            .triangle-float2 {
                animation: float2 4s infinite;
            }

            @keyframes float3 {
                0%{transform: translate(0, 0)}
                50%{transform: translate(0, -10px)}
                100%{transform: translate(0, 0)}
            }

            .triangle-float3 {
                animation: float3 6s infinite;
            }
        </style></defs></svg>