<svg xmlns="http://www.w3.org/2000/svg" version="1.1" xmlns:xlink="http://www.w3.org/1999/xlink" xmlns:svgjs="http://svgjs.com/svgjs" width="1440" height="560" preserveAspectRatio="none" viewBox="0 0 1440 560"><g mask="url(&quot;#SvgjsMask1049&quot;)" fill="none"><rect width="1440" height="560" x="0" y="0" fill="rgba(0, 5, 87, 1)"></rect><path d="M0,620.223C110.998,592.521,172.336,479.765,268.499,417.792C364.489,355.931,505.432,355.705,563.257,257.231C621.474,158.089,575.317,33.412,561.212,-80.69C546.813,-197.164,541.851,-316.192,480.037,-415.955C411.906,-525.913,324.65,-651.541,196.517,-669.277C67.679,-687.111,-29.848,-557.98,-147.647,-502.839C-243.894,-457.786,-366.325,-457.92,-432.554,-374.811C-498.248,-292.374,-470.697,-173.975,-491.989,-70.737C-515.036,41.011,-583.793,144.889,-562.87,257.054C-539.575,381.933,-477.826,508.544,-371.083,577.416C-264.294,646.317,-123.306,650.997,0,620.223" fill="#000449"></path><path d="M1440 846.361C1509.874 862.3910000000001 1585.028 918.039 1647.518 882.905 1709.2 848.226 1697.159 754.958 1721.045 688.3489999999999 1742.542 628.402 1796.375 572.761 1780.891 510.987 1765.407 449.21500000000003 1681.774 434.44 1644.465 382.83000000000004 1601.5149999999999 323.41700000000003 1616.745 217.08499999999998 1548.701 189.798 1482.574 163.27999999999997 1417.219 233.88600000000002 1353.746 266.246 1301.749 292.756 1247.106 315.738 1211.288 361.82 1176.507 406.567 1159.346 462.68899999999996 1157.039 519.316 1154.871 572.525 1176.5140000000001 621.787 1198.724 670.187 1220.896 718.504 1242.874 768.576 1285.809 799.9259999999999 1330.056 832.2339999999999 1386.6 834.111 1440 846.361" fill="#000665"></path></g><defs><mask id="SvgjsMask1049"><rect width="1440" height="560" fill="#ffffff"></rect></mask></defs></svg>